# xmcd CD database file
#
# Track frame offsets:
#	150
#	13666
#	26808
#	38628
#	52957
#	75850
#	86879
#	100457
#	111972
#	124285
#	135918
#	149370
#	163990
#	179075
#	192385
#	206687
#
# Disc length: 2897 seconds
#
# Revision: 0
# Processed by: cddbd v1.5.2PL0 Copyright (c) Steve Scherf et al.
# Submitted via: CDex 1.92
#
DISCID=e30b4f10
DTITLE=Elmore James - Big Box
DYEAR=2012
DGENRE=Blues
TTITLE0=Goodbye Baby
TTITLE1=Held My Baby Last Night
TTITLE2=Fine Little Mama
TTITLE3=Please Find My Baby
TTITLE4=Something Inside Me
TTITLE5=One Way Out
TTITLE6=Kickin' The Blues Around
TTITLE7=Do It If You Wanna
TTITLE8=Mean Mistreatin' Mama
TTITLE9=Strange Kinda Feeling
TTITLE10=Look Up On The Wall
TTITLE11=Hand In Hand
TTITLE12=Sunny Land
TTITLE13=Talk to Me Baby
TTITLE14=Up Jumped Elmore
TTITLE15=Take Me Where You Go
EXTD=YEAR: 2012
EXTT0=
EXTT1=
EXTT2=
EXTT3=
EXTT4=
EXTT5=
EXTT6=
EXTT7=
EXTT8=
EXTT9=
EXTT10=
EXTT11=
EXTT12=
EXTT13=
EXTT14=
EXTT15=
PLAYORDER=
